# xmcd CD database file
#
# Track frame offsets:
#	150
#	17355
#	32612
#
# Disc length: 645 seconds
#
# Revision: 0
# Processed by: cddbd v1.5.1PL0 Copyright (c) Steve Scherf et al.
# Submitted via: CDex 1.51
#
DISCID=13028303
DTITLE=Strawberry JAM - Tokyo taste
DYEAR=2001
DGENRE=JPop
TTITLE0=Tokyo taste
TTITLE1=ジュンのバラード
TTITLE2=LOVE PARADE
EXTD=YEAR: 2001
EXTT0=
EXTT1=
EXTT2=
PLAYORDER=
